# xmcd CD database file
#
# Track frame offsets:
#	183
#	1708
#	14533
#	38658
#	57245
#	75720
#	94258
#	114545
#	134833
#	153333
#	169145
#	184870
#	204620
#
# Disc length: 2858 seconds
#
# Revision: 1
# Processed by: cddbd v1.5.2PL0 Copyright (c) Steve Scherf et al.
# Submitted via: CDex 1.70beta2
#
DISCID=a80b280d
DTITLE=All-4-One - Unknown CD for MusicBrainz and FreeDB
DYEAR=1900
DGENRE=
TTITLE0=Silent Night
TTITLE1=This Christmas
TTITLE2=The First Noel
TTITLE3=The Christmas Song
TTITLE4=Santa Claus Is Coming to Town
TTITLE5=Mary's Boy Child
TTITLE6=What Child Is This? (Greensleeves)
TTITLE7=Frosty the Snowman/Rudolph the Red Nosed Reindeer
TTITLE8=O Come All Ye Faithful
TTITLE9=When You Wish upon a Star
TTITLE10=Christmas With My Baby
TTITLE11=We Wish You a Merry Christmas
TTITLE12=Trak13
EXTD=
EXTT0=
EXTT1=
EXTT2=
EXTT3=
EXTT4=
EXTT5=
EXTT6=
EXTT7=
EXTT8=
EXTT9=
EXTT10=
EXTT11=
EXTT12=
PLAYORDER=
